<svg version="1.1" id="Layer_1" xmlns="http://www.w3.org/2000/svg" xmlns:xlink="http://www.w3.org/1999/xlink" x="0px" y="0px"
	 width="100%" viewBox="0 0 277 50" enable-background="new 0 0 277 50" xml:space="preserve">
<path fill="#231F20" opacity="1.000000" stroke="none" 
	d="
M278.000000,23.000000 
	C278.000000,32.321205 278.000000,41.642414 278.000000,50.948471 
	C185.666656,50.948471 93.333313,50.948471 1.000000,50.948471 
	C1.000000,40.577065 1.000000,30.257191 1.345482,19.233303 
	C12.809527,16.189915 14.544908,14.071465 14.850448,2.484621 
	C14.863523,1.988778 14.948511,1.494831 15.000000,1.000000 
	C98.687561,1.000000 182.375122,1.000000 266.558105,1.365251 
	C264.290100,7.927507 261.526733,14.124513 258.643280,20.590742 
	C265.797913,21.481251 271.898956,22.240625 278.000000,23.000000 
z"/>
<path fill="#ED5937" opacity="1.000000" stroke="none" 
	d="
M278.000000,22.531216 
	C271.898956,22.240625 265.797913,21.481251 258.643280,20.590742 
	C261.526733,14.124513 264.290100,7.927507 267.026733,1.365251 
	C270.617310,1.000000 274.234589,1.000000 278.000000,1.000000 
	C278.000000,8.020308 278.000000,15.041371 278.000000,22.531216 
z"/>
<path fill="#ED5937" opacity="1.000000" stroke="none" 
	d="
M14.525872,1.000000 
	C14.948511,1.494831 14.863523,1.988778 14.850448,2.484621 
	C14.544908,14.071465 12.809527,16.189915 1.345482,18.764647 
	C1.000000,13.085382 1.000000,7.170764 1.000000,1.000000 
	C5.347288,1.000000 9.699516,1.000000 14.525872,1.000000 
z"/>
</svg>