<?xml version="1.0" encoding="UTF-8"?>
<svg xmlns="http://www.w3.org/2000/svg" xmlns:xlink="http://www.w3.org/1999/xlink" width="146px" height="38px" viewBox="0 0 143 38" version="1.1">
<g id="surface1">
<path style=" stroke:none;fill-rule:nonzero;fill:rgb(100%,100%,100%);fill-opacity:1;" d="M 105.121094 38.039062 C 70.082031 38.039062 35.058594 38.039062 0.0390625 38.039062 C 0.0390625 25.371094 0.0390625 12.707031 0.0390625 0.0390625 C 47.703125 0.0390625 95.371094 0.0390625 143.039062 0.0390625 C 143.039062 12.707031 143.039062 25.371094 143.039062 38.039062 C 130.40625 38.039062 117.773438 38.039062 105.121094 38.039062 M 136.773438 26.421875 C 136.777344 26.410156 136.777344 26.398438 136.789062 26.359375 C 136.765625 26.324219 136.738281 26.289062 136.71875 26.25 C 136.28125 25.484375 135.84375 24.71875 135.410156 23.953125 C 134.859375 22.988281 134.3125 22.019531 133.757812 21.054688 C 133.179688 20.042969 132.59375 19.03125 132 18.003906 C 130.398438 18.003906 128.785156 18.003906 127.15625 18.003906 C 127.15625 14.65625 127.15625 11.324219 127.15625 8 C 125.640625 8 124.144531 8 122.65625 8 C 122.65625 14.152344 122.65625 20.285156 122.65625 26.417969 C 124.164062 26.417969 125.65625 26.417969 127.167969 26.417969 C 127.167969 26.347656 127.167969 26.285156 127.167969 26.222656 C 127.167969 25.292969 127.164062 24.359375 127.167969 23.425781 C 127.171875 23.351562 127.199219 23.261719 127.246094 23.210938 C 127.664062 22.726562 128.089844 22.25 128.515625 21.773438 C 128.601562 21.675781 128.6875 21.578125 128.789062 21.457031 C 128.945312 21.722656 129.09375 21.96875 129.234375 22.214844 C 129.515625 22.707031 129.789062 23.199219 130.066406 23.691406 C 130.386719 24.257812 130.714844 24.824219 131.039062 25.390625 C 131.230469 25.722656 131.425781 26.054688 131.617188 26.410156 C 131.628906 26.414062 131.640625 26.417969 131.6875 26.425781 C 132.242188 26.425781 132.796875 26.425781 133.351562 26.425781 C 134.484375 26.425781 135.617188 26.421875 136.773438 26.421875 M 72.898438 7.988281 C 72.894531 8 72.890625 8.011719 72.878906 8.058594 C 72.878906 10.125 72.878906 12.191406 72.878906 14.273438 C 72.65625 14.066406 72.457031 13.871094 72.246094 13.695312 C 71.507812 13.082031 70.640625 12.769531 69.703125 12.703125 C 69.070312 12.65625 68.429688 12.671875 67.796875 12.800781 C 66.714844 13.027344 65.769531 13.503906 64.976562 14.265625 C 64.378906 14.839844 63.933594 15.527344 63.609375 16.292969 C 63.222656 17.214844 63.039062 18.179688 62.992188 19.171875 C 62.960938 19.863281 63.015625 20.550781 63.136719 21.238281 C 63.277344 22.042969 63.527344 22.800781 63.917969 23.515625 C 64.308594 24.230469 64.816406 24.839844 65.457031 25.347656 C 66.484375 26.15625 67.664062 26.507812 68.945312 26.578125 C 69.441406 26.605469 69.9375 26.546875 70.421875 26.425781 C 71.183594 26.238281 71.867188 25.902344 72.417969 25.328125 C 72.703125 25.035156 72.980469 24.734375 73.261719 24.441406 C 73.730469 23.953125 74.203125 23.464844 74.675781 22.980469 C 75.527344 22.109375 76.382812 21.234375 77.238281 20.363281 C 77.25 20.347656 77.265625 20.335938 77.277344 20.320312 C 77.382812 20.195312 77.449219 20.066406 77.449219 19.882812 C 77.441406 16.007812 77.441406 12.132812 77.441406 8.253906 C 77.441406 8.179688 77.4375 8.101562 77.4375 8.003906 C 77.429688 8 77.417969 7.996094 77.367188 7.988281 C 75.886719 7.988281 74.402344 7.992188 72.898438 7.988281 M 95.941406 31.671875 C 96.226562 31.671875 96.511719 31.671875 96.8125 31.671875 C 96.8125 29.425781 96.8125 27.199219 96.8125 24.992188 C 97.132812 25.261719 97.429688 25.5625 97.773438 25.789062 C 98.550781 26.304688 99.429688 26.546875 100.359375 26.574219 C 100.722656 26.585938 101.089844 26.53125 101.453125 26.503906 C 102.050781 26.453125 102.617188 26.273438 103.160156 26.023438 C 103.972656 25.648438 104.652344 25.105469 105.210938 24.394531 C 105.683594 23.792969 106.027344 23.125 106.265625 22.410156 C 106.582031 21.4375 106.703125 20.433594 106.660156 19.40625 C 106.640625 18.832031 106.589844 18.265625 106.46875 17.699219 C 106.300781 16.886719 106.015625 16.125 105.578125 15.425781 C 105.03125 14.542969 104.308594 13.832031 103.386719 13.351562 C 102.753906 13.015625 102.078125 12.800781 101.359375 12.726562 C 100.6875 12.664062 100.015625 12.644531 99.359375 12.78125 C 98.328125 12.996094 97.460938 13.515625 96.753906 14.304688 C 96.703125 14.359375 96.65625 14.417969 96.597656 14.492188 C 96.476562 13.925781 96.363281 13.390625 96.25 12.859375 C 94.914062 12.859375 93.582031 12.859375 92.25 12.859375 C 92.25 19.132812 92.25 25.398438 92.25 31.671875 C 93.476562 31.671875 94.6875 31.671875 95.941406 31.671875 M 115.828125 23.105469 C 115.371094 23.210938 114.917969 23.289062 114.4375 23.234375 C 113.722656 23.148438 113.105469 22.90625 112.675781 22.3125 C 112.335938 21.84375 112.179688 21.3125 112.222656 20.710938 C 115.359375 20.710938 118.480469 20.710938 121.605469 20.710938 C 121.644531 20.386719 121.707031 20.074219 121.71875 19.761719 C 121.75 19.007812 121.710938 18.253906 121.53125 17.515625 C 121.269531 16.429688 120.765625 15.472656 119.988281 14.675781 C 119.414062 14.082031 118.730469 13.640625 117.972656 13.308594 C 117.164062 12.953125 116.308594 12.75 115.433594 12.703125 C 114.660156 12.664062 113.878906 12.660156 113.105469 12.800781 C 112.355469 12.9375 111.632812 13.140625 110.957031 13.484375 C 110.285156 13.832031 109.675781 14.269531 109.164062 14.847656 C 108.710938 15.359375 108.347656 15.914062 108.074219 16.539062 C 107.675781 17.445312 107.507812 18.402344 107.46875 19.382812 C 107.449219 19.824219 107.503906 20.269531 107.539062 20.714844 C 107.585938 21.324219 107.734375 21.914062 107.957031 22.492188 C 108.316406 23.425781 108.855469 24.226562 109.617188 24.886719 C 110.175781 25.367188 110.796875 25.722656 111.46875 25.988281 C 112.480469 26.390625 113.546875 26.539062 114.628906 26.578125 C 114.90625 26.585938 115.1875 26.570312 115.464844 26.539062 C 115.964844 26.484375 116.472656 26.445312 116.964844 26.34375 C 118.050781 26.113281 119.03125 25.648438 119.871094 24.910156 C 120.5625 24.300781 121.070312 23.550781 121.363281 22.667969 C 121.460938 22.378906 121.511719 22.074219 121.589844 21.761719 C 120.066406 21.761719 118.585938 21.761719 117.097656 21.761719 C 116.914062 22.425781 116.5 22.871094 115.828125 23.105469 M 38.300781 22.347656 C 37.957031 21.867188 37.816406 21.320312 37.800781 20.714844 C 37.882812 20.714844 37.949219 20.714844 38.019531 20.714844 C 41.003906 20.714844 43.984375 20.714844 46.96875 20.714844 C 47.007812 20.714844 47.050781 20.730469 47.082031 20.714844 C 47.136719 20.6875 47.214844 20.652344 47.226562 20.605469 C 47.265625 20.402344 47.296875 20.195312 47.304688 19.988281 C 47.316406 19.628906 47.328125 19.269531 47.304688 18.910156 C 47.273438 18.472656 47.234375 18.027344 47.148438 17.597656 C 46.953125 16.601562 46.503906 15.71875 45.847656 14.949219 C 45.320312 14.332031 44.679688 13.839844 43.957031 13.476562 C 43.054688 13.027344 42.085938 12.757812 41.085938 12.703125 C 40.167969 12.65625 39.246094 12.675781 38.332031 12.875 C 37.164062 13.132812 36.113281 13.613281 35.210938 14.398438 C 34.640625 14.894531 34.195312 15.496094 33.851562 16.167969 C 33.394531 17.070312 33.15625 18.039062 33.09375 19.042969 C 33.042969 19.847656 33.066406 20.660156 33.246094 21.453125 C 33.527344 22.707031 34.074219 23.820312 35.03125 24.707031 C 35.453125 25.101562 35.914062 25.429688 36.417969 25.6875 C 37.09375 26.035156 37.808594 26.261719 38.558594 26.394531 C 39.253906 26.519531 39.953125 26.574219 40.65625 26.578125 C 40.800781 26.578125 40.945312 26.558594 41.089844 26.542969 C 41.445312 26.503906 41.800781 26.476562 42.152344 26.425781 C 43 26.292969 43.792969 26.019531 44.535156 25.582031 C 45.128906 25.230469 45.65625 24.804688 46.09375 24.269531 C 46.550781 23.710938 46.867188 23.070312 47.058594 22.375 C 47.113281 22.179688 47.136719 21.976562 47.179688 21.757812 C 45.691406 21.757812 44.25 21.757812 42.808594 21.765625 C 42.761719 21.765625 42.6875 21.835938 42.667969 21.890625 C 42.53125 22.257812 42.328125 22.570312 42.003906 22.804688 C 41.355469 23.269531 40.621094 23.3125 39.875 23.214844 C 39.261719 23.136719 38.722656 22.867188 38.300781 22.347656 M 62.03125 24.476562 C 62.03125 23.640625 62.039062 22.808594 62.027344 21.972656 C 62.011719 20.574219 62.003906 19.179688 61.941406 17.785156 C 61.914062 17.230469 61.78125 16.671875 61.636719 16.132812 C 61.453125 15.417969 61.101562 14.777344 60.613281 14.226562 C 60.191406 13.75 59.683594 13.398438 59.097656 13.140625 C 58.519531 12.890625 57.917969 12.75 57.300781 12.703125 C 56.792969 12.664062 56.273438 12.707031 55.757812 12.734375 C 55.226562 12.761719 54.726562 12.917969 54.242188 13.140625 C 53.601562 13.433594 53.070312 13.875 52.613281 14.421875 C 52.503906 13.890625 52.394531 13.371094 52.289062 12.859375 C 50.941406 12.859375 49.609375 12.859375 48.277344 12.859375 C 48.277344 17.386719 48.277344 21.902344 48.277344 26.414062 C 49.800781 26.414062 51.308594 26.414062 52.828125 26.414062 C 52.828125 26.335938 52.828125 26.265625 52.828125 26.195312 C 52.828125 23.875 52.820312 21.554688 52.839844 19.234375 C 52.839844 18.820312 52.917969 18.394531 53.03125 17.992188 C 53.234375 17.25 53.6875 16.703125 54.4375 16.460938 C 54.886719 16.3125 55.347656 16.292969 55.820312 16.394531 C 56.28125 16.492188 56.664062 16.714844 56.9375 17.113281 C 57.359375 17.722656 57.453125 18.429688 57.460938 19.136719 C 57.480469 21.492188 57.46875 23.851562 57.46875 26.210938 C 57.46875 26.28125 57.46875 26.347656 57.46875 26.414062 C 59 26.414062 60.511719 26.414062 62.03125 26.414062 C 62.03125 25.773438 62.03125 25.144531 62.03125 24.476562 M 86.242188 17.863281 C 85.6875 17.796875 85.132812 17.726562 84.582031 17.671875 C 84.105469 17.621094 83.628906 17.574219 83.175781 17.398438 C 82.980469 17.320312 82.804688 17.214844 82.734375 17 C 82.613281 16.628906 82.75 16.328125 83.082031 16.085938 C 83.417969 15.84375 83.8125 15.773438 84.207031 15.75 C 84.820312 15.710938 85.4375 15.722656 86.023438 15.972656 C 86.445312 16.152344 86.761719 16.445312 86.863281 16.902344 C 86.898438 17.074219 86.953125 17.09375 87.089844 17.09375 C 88.394531 17.089844 89.699219 17.089844 91 17.089844 C 91.054688 17.089844 91.109375 17.085938 91.179688 17.082031 C 91.160156 16.960938 91.140625 16.863281 91.128906 16.765625 C 91.089844 16.351562 90.976562 15.957031 90.800781 15.585938 C 90.5625 15.078125 90.226562 14.652344 89.8125 14.277344 C 89.355469 13.859375 88.832031 13.554688 88.273438 13.3125 C 87.695312 13.0625 87.097656 12.878906 86.472656 12.804688 C 85.933594 12.738281 85.394531 12.660156 84.851562 12.621094 C 84.5 12.597656 84.140625 12.648438 83.789062 12.652344 C 83.234375 12.660156 82.695312 12.75 82.160156 12.886719 C 81.050781 13.164062 80.0625 13.644531 79.304688 14.539062 C 78.988281 14.910156 78.757812 15.320312 78.589844 15.777344 C 78.335938 16.464844 78.320312 17.167969 78.398438 17.886719 C 78.488281 18.683594 78.871094 19.320312 79.480469 19.808594 C 80.257812 20.433594 81.191406 20.710938 82.148438 20.90625 C 82.707031 21.019531 83.277344 21.09375 83.84375 21.179688 C 84.289062 21.25 84.734375 21.300781 85.175781 21.375 C 85.566406 21.441406 85.964844 21.5 86.339844 21.613281 C 87.066406 21.828125 87.035156 22.53125 86.730469 22.914062 C 86.503906 23.203125 86.160156 23.308594 85.816406 23.375 C 85.3125 23.476562 84.804688 23.476562 84.292969 23.421875 C 83.890625 23.378906 83.519531 23.269531 83.164062 23.074219 C 82.742188 22.839844 82.480469 22.472656 82.363281 22.019531 C 82.320312 21.855469 82.269531 21.832031 82.132812 21.832031 C 80.847656 21.835938 79.5625 21.835938 78.277344 21.835938 C 78.21875 21.835938 78.15625 21.835938 78.046875 21.835938 C 78.128906 22.226562 78.183594 22.585938 78.285156 22.929688 C 78.5 23.679688 78.894531 24.324219 79.488281 24.832031 C 79.8125 25.109375 80.152344 25.382812 80.523438 25.597656 C 81.542969 26.183594 82.664062 26.441406 83.824219 26.535156 C 84.34375 26.578125 84.871094 26.539062 85.398438 26.542969 C 86.132812 26.546875 86.851562 26.421875 87.5625 26.234375 C 88.71875 25.925781 89.742188 25.398438 90.515625 24.445312 C 91.074219 23.757812 91.3125 22.957031 91.351562 22.089844 C 91.367188 21.796875 91.320312 21.496094 91.28125 21.203125 C 91.191406 20.570312 90.941406 20.007812 90.507812 19.535156 C 89.855469 18.816406 89.007812 18.453125 88.101562 18.21875 C 87.503906 18.058594 86.886719 17.976562 86.242188 17.863281 M 15.96875 8.101562 C 15.082031 8.101562 14.195312 8.101562 13.3125 8.101562 C 13.3125 14.195312 13.3125 20.269531 13.3125 26.339844 C 14.910156 26.339844 16.5 26.339844 18.101562 26.339844 C 18.101562 21.617188 18.101562 16.910156 18.101562 12.183594 C 19.730469 12.183594 21.34375 12.183594 22.953125 12.183594 C 22.953125 10.816406 22.953125 9.464844 22.953125 8.101562 C 20.628906 8.101562 18.316406 8.101562 15.96875 8.101562 M 27.964844 13.617188 C 27.921875 13.363281 27.875 13.105469 27.832031 12.859375 C 26.425781 12.859375 25.042969 12.859375 23.667969 12.859375 C 23.667969 17.390625 23.667969 21.90625 23.667969 26.414062 C 25.179688 26.414062 26.675781 26.414062 28.179688 26.414062 C 28.179688 26.320312 28.179688 26.246094 28.179688 26.167969 C 28.191406 23.941406 28.203125 21.710938 28.214844 19.484375 C 28.21875 19.078125 28.300781 18.6875 28.453125 18.316406 C 28.644531 17.847656 28.949219 17.460938 29.410156 17.21875 C 29.851562 16.992188 30.320312 16.890625 30.816406 16.894531 C 31.414062 16.902344 32.011719 16.898438 32.617188 16.898438 C 32.617188 15.539062 32.617188 14.199219 32.617188 12.84375 C 31.964844 12.867188 31.324219 12.8125 30.683594 12.957031 C 30 13.109375 29.390625 13.390625 28.894531 13.890625 C 28.640625 14.144531 28.417969 14.4375 28.171875 14.726562 C 28.109375 14.367188 28.046875 14.007812 27.964844 13.617188 M 135.832031 13.753906 C 136.09375 13.457031 136.355469 13.160156 136.636719 12.847656 C 134.96875 12.847656 133.328125 12.847656 131.6875 12.847656 C 131.648438 12.847656 131.597656 12.878906 131.570312 12.910156 C 131.292969 13.207031 131.023438 13.511719 130.75 13.8125 C 130.367188 14.238281 129.984375 14.664062 129.597656 15.085938 C 129.125 15.605469 128.644531 16.125 128.167969 16.644531 C 128.105469 16.710938 128.058594 16.792969 127.980469 16.898438 C 128.089844 16.898438 128.15625 16.898438 128.222656 16.898438 C 129.738281 16.898438 131.253906 16.890625 132.765625 16.90625 C 132.980469 16.90625 133.109375 16.816406 133.234375 16.675781 C 133.316406 16.578125 133.398438 16.480469 133.480469 16.386719 C 133.742188 16.101562 134.003906 15.816406 134.261719 15.523438 C 134.777344 14.941406 135.292969 14.355469 135.832031 13.753906 M 7.761719 8.101562 C 7.273438 8.101562 6.785156 8.101562 6.25 8.101562 C 6.328125 8.207031 6.375 8.277344 6.433594 8.34375 C 6.769531 8.722656 7.109375 9.097656 7.445312 9.480469 C 7.910156 10.007812 8.371094 10.539062 8.832031 11.070312 C 9.066406 11.335938 9.289062 11.609375 9.523438 11.875 C 9.691406 12.0625 9.84375 12.234375 10.152344 12.203125 C 10.546875 12.160156 10.953125 12.191406 11.355469 12.191406 C 11.628906 12.191406 11.902344 12.191406 12.179688 12.191406 C 12.179688 10.820312 12.179688 9.464844 12.179688 8.101562 C 10.710938 8.101562 9.257812 8.101562 7.761719 8.101562 Z M 7.761719 8.101562 "/>
<path style=" stroke:none;fill-rule:nonzero;fill:rgb(13.72549%,12.156863%,12.54902%);fill-opacity:1;" d="M 95.921875 31.671875 C 94.6875 31.671875 93.476562 31.671875 92.25 31.671875 C 92.25 25.398438 92.25 19.132812 92.25 12.859375 C 93.582031 12.859375 94.914062 12.859375 96.25 12.859375 C 96.363281 13.390625 96.476562 13.925781 96.597656 14.492188 C 96.65625 14.417969 96.703125 14.359375 96.753906 14.304688 C 97.460938 13.515625 98.328125 12.996094 99.359375 12.78125 C 100.015625 12.644531 100.6875 12.664062 101.359375 12.726562 C 102.078125 12.800781 102.753906 13.015625 103.386719 13.351562 C 104.308594 13.832031 105.03125 14.542969 105.578125 15.425781 C 106.015625 16.125 106.300781 16.886719 106.46875 17.699219 C 106.589844 18.265625 106.640625 18.832031 106.660156 19.40625 C 106.703125 20.433594 106.582031 21.4375 106.265625 22.410156 C 106.027344 23.125 105.683594 23.792969 105.210938 24.394531 C 104.652344 25.105469 103.972656 25.648438 103.160156 26.023438 C 102.617188 26.273438 102.050781 26.453125 101.453125 26.503906 C 101.089844 26.53125 100.722656 26.585938 100.359375 26.574219 C 99.429688 26.546875 98.550781 26.304688 97.773438 25.789062 C 97.429688 25.5625 97.132812 25.261719 96.8125 24.992188 C 96.8125 27.199219 96.8125 29.425781 96.8125 31.671875 C 96.511719 31.671875 96.226562 31.671875 95.921875 31.671875 M 99.683594 16.320312 C 99.425781 16.332031 99.164062 16.328125 98.910156 16.359375 C 98.207031 16.449219 97.6875 16.828125 97.300781 17.410156 C 96.875 18.058594 96.75 18.800781 96.734375 19.554688 C 96.722656 20.050781 96.796875 20.539062 96.949219 21.019531 C 97.148438 21.636719 97.457031 22.164062 97.996094 22.527344 C 98.570312 22.914062 99.203125 23 99.878906 22.882812 C 100.5 22.773438 100.988281 22.445312 101.359375 21.960938 C 101.859375 21.300781 102.035156 20.519531 102.046875 19.707031 C 102.050781 19.265625 101.996094 18.8125 101.890625 18.378906 C 101.726562 17.703125 101.382812 17.121094 100.789062 16.722656 C 100.464844 16.5 100.101562 16.386719 99.683594 16.320312 Z M 99.683594 16.320312 "/>
<path style=" stroke:none;fill-rule:nonzero;fill:rgb(13.72549%,12.156863%,12.54902%);fill-opacity:1;" d="M 77.4375 8.023438 C 77.4375 8.101562 77.441406 8.179688 77.441406 8.253906 C 77.441406 12.132812 77.441406 16.007812 77.449219 19.882812 C 77.449219 20.066406 77.382812 20.195312 77.277344 20.320312 C 77.265625 20.335938 77.25 20.347656 77.238281 20.363281 C 76.382812 21.234375 75.527344 22.109375 74.675781 22.980469 C 74.203125 23.464844 73.730469 23.953125 73.261719 24.441406 C 72.980469 24.734375 72.703125 25.035156 72.417969 25.328125 C 71.867188 25.902344 71.183594 26.238281 70.421875 26.425781 C 69.9375 26.546875 69.441406 26.605469 68.945312 26.578125 C 67.664062 26.507812 66.484375 26.15625 65.457031 25.347656 C 64.816406 24.839844 64.308594 24.230469 63.917969 23.515625 C 63.527344 22.800781 63.277344 22.042969 63.136719 21.238281 C 63.015625 20.550781 62.960938 19.863281 62.992188 19.171875 C 63.039062 18.179688 63.222656 17.214844 63.609375 16.292969 C 63.933594 15.527344 64.378906 14.839844 64.976562 14.265625 C 65.769531 13.503906 66.714844 13.027344 67.796875 12.800781 C 68.429688 12.671875 69.070312 12.65625 69.703125 12.703125 C 70.640625 12.769531 71.507812 13.082031 72.246094 13.695312 C 72.457031 13.871094 72.65625 14.066406 72.878906 14.273438 C 72.878906 12.191406 72.878906 10.125 72.890625 8.039062 C 72.910156 8.011719 72.914062 8.003906 72.917969 7.992188 C 74.402344 7.992188 75.886719 7.988281 77.390625 7.996094 C 77.417969 8.015625 77.425781 8.019531 77.4375 8.023438 M 72.132812 22.144531 C 72.632812 21.554688 72.855469 20.847656 72.910156 20.097656 C 72.964844 19.378906 72.921875 18.660156 72.648438 17.976562 C 72.441406 17.460938 72.144531 17.011719 71.671875 16.707031 C 71.226562 16.417969 70.734375 16.300781 70.199219 16.316406 C 69.550781 16.335938 68.992188 16.558594 68.535156 17.011719 C 67.921875 17.625 67.691406 18.414062 67.636719 19.25 C 67.609375 19.679688 67.652344 20.117188 67.710938 20.542969 C 67.792969 21.125 68.023438 21.660156 68.414062 22.101562 C 68.949219 22.707031 69.628906 22.964844 70.441406 22.921875 C 71.109375 22.886719 71.65625 22.636719 72.132812 22.144531 Z M 72.132812 22.144531 "/>
<path style=" stroke:none;fill-rule:nonzero;fill:rgb(13.72549%,12.156863%,12.54902%);fill-opacity:1;" d="M 115.839844 23.097656 C 116.5 22.871094 116.914062 22.425781 117.097656 21.761719 C 118.585938 21.761719 120.066406 21.761719 121.589844 21.761719 C 121.511719 22.074219 121.460938 22.378906 121.363281 22.667969 C 121.070312 23.550781 120.5625 24.300781 119.871094 24.910156 C 119.03125 25.648438 118.050781 26.113281 116.964844 26.34375 C 116.472656 26.445312 115.964844 26.484375 115.464844 26.539062 C 115.1875 26.570312 114.90625 26.585938 114.628906 26.578125 C 113.546875 26.539062 112.480469 26.390625 111.46875 25.988281 C 110.796875 25.722656 110.175781 25.367188 109.617188 24.886719 C 108.855469 24.226562 108.316406 23.425781 107.957031 22.492188 C 107.734375 21.914062 107.585938 21.324219 107.539062 20.714844 C 107.503906 20.269531 107.449219 19.824219 107.46875 19.382812 C 107.507812 18.402344 107.675781 17.445312 108.074219 16.539062 C 108.347656 15.914062 108.710938 15.359375 109.164062 14.847656 C 109.675781 14.269531 110.285156 13.832031 110.957031 13.484375 C 111.632812 13.140625 112.355469 12.9375 113.105469 12.800781 C 113.878906 12.660156 114.660156 12.664062 115.433594 12.703125 C 116.308594 12.75 117.164062 12.953125 117.972656 13.308594 C 118.730469 13.640625 119.414062 14.082031 119.988281 14.675781 C 120.765625 15.472656 121.269531 16.429688 121.53125 17.515625 C 121.710938 18.253906 121.75 19.007812 121.71875 19.761719 C 121.707031 20.074219 121.644531 20.386719 121.605469 20.710938 C 118.480469 20.710938 115.359375 20.710938 112.222656 20.710938 C 112.179688 21.3125 112.335938 21.84375 112.675781 22.3125 C 113.105469 22.90625 113.722656 23.148438 114.4375 23.234375 C 114.917969 23.289062 115.371094 23.210938 115.839844 23.097656 M 116.03125 16.238281 C 115.910156 16.1875 115.796875 16.128906 115.671875 16.089844 C 115.1875 15.933594 114.691406 15.878906 114.195312 15.976562 C 113.902344 16.039062 113.59375 16.117188 113.339844 16.261719 C 112.722656 16.621094 112.378906 17.183594 112.261719 17.894531 C 113.910156 17.894531 115.546875 17.894531 117.203125 17.894531 C 117.152344 17.5625 117.019531 17.273438 116.855469 16.996094 C 116.660156 16.667969 116.378906 16.433594 116.03125 16.238281 Z M 116.03125 16.238281 "/>
<path style=" stroke:none;fill-rule:nonzero;fill:rgb(13.72549%,12.156863%,12.54902%);fill-opacity:1;" d="M 38.308594 22.359375 C 38.722656 22.867188 39.261719 23.136719 39.875 23.214844 C 40.621094 23.3125 41.355469 23.269531 42.003906 22.804688 C 42.328125 22.570312 42.53125 22.257812 42.667969 21.890625 C 42.6875 21.835938 42.761719 21.765625 42.808594 21.765625 C 44.25 21.757812 45.691406 21.757812 47.179688 21.757812 C 47.136719 21.976562 47.113281 22.179688 47.058594 22.375 C 46.867188 23.070312 46.550781 23.710938 46.09375 24.269531 C 45.65625 24.804688 45.128906 25.230469 44.535156 25.582031 C 43.792969 26.019531 43 26.292969 42.152344 26.425781 C 41.800781 26.476562 41.445312 26.503906 41.089844 26.542969 C 40.945312 26.558594 40.800781 26.578125 40.65625 26.578125 C 39.953125 26.574219 39.253906 26.519531 38.558594 26.394531 C 37.808594 26.261719 37.09375 26.035156 36.417969 25.6875 C 35.914062 25.429688 35.453125 25.101562 35.03125 24.707031 C 34.074219 23.820312 33.527344 22.707031 33.246094 21.453125 C 33.066406 20.660156 33.042969 19.847656 33.09375 19.042969 C 33.15625 18.039062 33.394531 17.070312 33.851562 16.167969 C 34.195312 15.496094 34.640625 14.894531 35.210938 14.398438 C 36.113281 13.613281 37.164062 13.132812 38.332031 12.875 C 39.246094 12.675781 40.167969 12.65625 41.085938 12.703125 C 42.085938 12.757812 43.054688 13.027344 43.957031 13.476562 C 44.679688 13.839844 45.320312 14.332031 45.847656 14.949219 C 46.503906 15.71875 46.953125 16.601562 47.148438 17.597656 C 47.234375 18.027344 47.273438 18.472656 47.304688 18.910156 C 47.328125 19.269531 47.316406 19.628906 47.304688 19.988281 C 47.296875 20.195312 47.265625 20.402344 47.226562 20.605469 C 47.214844 20.652344 47.136719 20.6875 47.082031 20.714844 C 47.050781 20.730469 47.007812 20.714844 46.96875 20.714844 C 43.984375 20.714844 41.003906 20.714844 38.019531 20.714844 C 37.949219 20.714844 37.882812 20.714844 37.800781 20.714844 C 37.816406 21.320312 37.957031 21.867188 38.308594 22.359375 M 38.570312 16.527344 C 38.183594 16.898438 37.96875 17.359375 37.867188 17.890625 C 39.527344 17.890625 41.171875 17.890625 42.832031 17.890625 C 42.777344 17.71875 42.730469 17.558594 42.667969 17.40625 C 42.605469 17.253906 42.535156 17.097656 42.441406 16.960938 C 41.824219 16.042969 40.695312 15.824219 39.761719 15.988281 C 39.324219 16.0625 38.933594 16.226562 38.570312 16.527344 Z M 38.570312 16.527344 "/>
<path style=" stroke:none;fill-rule:nonzero;fill:rgb(13.72549%,12.156863%,12.54902%);fill-opacity:1;" d="M 62.03125 24.496094 C 62.03125 25.144531 62.03125 25.773438 62.03125 26.414062 C 60.511719 26.414062 59 26.414062 57.46875 26.414062 C 57.46875 26.347656 57.46875 26.28125 57.46875 26.210938 C 57.46875 23.851562 57.480469 21.492188 57.460938 19.136719 C 57.453125 18.429688 57.359375 17.722656 56.9375 17.113281 C 56.664062 16.714844 56.28125 16.492188 55.820312 16.394531 C 55.347656 16.292969 54.886719 16.3125 54.4375 16.460938 C 53.6875 16.703125 53.234375 17.25 53.03125 17.992188 C 52.917969 18.394531 52.839844 18.820312 52.839844 19.234375 C 52.820312 21.554688 52.828125 23.875 52.828125 26.195312 C 52.828125 26.265625 52.828125 26.335938 52.828125 26.414062 C 51.308594 26.414062 49.800781 26.414062 48.277344 26.414062 C 48.277344 21.902344 48.277344 17.386719 48.277344 12.859375 C 49.609375 12.859375 50.941406 12.859375 52.289062 12.859375 C 52.394531 13.371094 52.503906 13.890625 52.613281 14.421875 C 53.070312 13.875 53.601562 13.433594 54.242188 13.140625 C 54.726562 12.917969 55.226562 12.761719 55.757812 12.734375 C 56.273438 12.707031 56.792969 12.664062 57.300781 12.703125 C 57.917969 12.75 58.519531 12.890625 59.097656 13.140625 C 59.683594 13.398438 60.191406 13.75 60.613281 14.226562 C 61.101562 14.777344 61.453125 15.417969 61.636719 16.132812 C 61.78125 16.671875 61.914062 17.230469 61.941406 17.785156 C 62.003906 19.179688 62.011719 20.574219 62.027344 21.972656 C 62.039062 22.808594 62.03125 23.640625 62.03125 24.496094 Z M 62.03125 24.496094 "/>
<path style=" stroke:none;fill-rule:nonzero;fill:rgb(13.72549%,12.156863%,12.54902%);fill-opacity:1;" d="M 131.621094 26.386719 C 131.425781 26.054688 131.230469 25.722656 131.039062 25.390625 C 130.714844 24.824219 130.386719 24.257812 130.066406 23.691406 C 129.789062 23.199219 129.515625 22.707031 129.234375 22.214844 C 129.09375 21.96875 128.945312 21.722656 128.789062 21.457031 C 128.6875 21.578125 128.601562 21.675781 128.515625 21.773438 C 128.089844 22.25 127.664062 22.726562 127.246094 23.210938 C 127.199219 23.261719 127.171875 23.351562 127.167969 23.425781 C 127.164062 24.359375 127.167969 25.292969 127.167969 26.222656 C 127.167969 26.285156 127.167969 26.347656 127.167969 26.417969 C 125.65625 26.417969 124.164062 26.417969 122.65625 26.417969 C 122.65625 20.285156 122.65625 14.152344 122.65625 8 C 124.144531 8 125.640625 8 127.15625 8 C 127.15625 11.324219 127.15625 14.65625 127.15625 18.003906 C 128.785156 18.003906 130.398438 18.003906 132 18.003906 C 132.59375 19.03125 133.179688 20.042969 133.757812 21.054688 C 134.3125 22.019531 134.859375 22.988281 135.410156 23.953125 C 135.84375 24.71875 136.28125 25.484375 136.71875 26.25 C 136.738281 26.289062 136.765625 26.324219 136.777344 26.378906 C 136.761719 26.402344 136.753906 26.410156 136.75 26.421875 C 135.617188 26.421875 134.484375 26.425781 133.351562 26.425781 C 132.796875 26.425781 132.242188 26.425781 131.664062 26.417969 C 131.636719 26.398438 131.628906 26.390625 131.621094 26.386719 Z M 131.621094 26.386719 "/>
<path style=" stroke:none;fill-rule:nonzero;fill:rgb(13.72549%,12.156863%,12.54902%);fill-opacity:1;" d="M 86.257812 17.863281 C 86.886719 17.976562 87.503906 18.058594 88.101562 18.21875 C 89.007812 18.453125 89.855469 18.816406 90.507812 19.535156 C 90.941406 20.007812 91.191406 20.570312 91.28125 21.203125 C 91.320312 21.496094 91.367188 21.796875 91.351562 22.089844 C 91.3125 22.957031 91.074219 23.757812 90.515625 24.445312 C 89.742188 25.398438 88.71875 25.925781 87.5625 26.234375 C 86.851562 26.421875 86.132812 26.546875 85.398438 26.542969 C 84.871094 26.539062 84.34375 26.578125 83.824219 26.535156 C 82.664062 26.441406 81.542969 26.183594 80.523438 25.597656 C 80.152344 25.382812 79.8125 25.109375 79.488281 24.832031 C 78.894531 24.324219 78.5 23.679688 78.285156 22.929688 C 78.183594 22.585938 78.128906 22.226562 78.046875 21.835938 C 78.15625 21.835938 78.21875 21.835938 78.277344 21.835938 C 79.5625 21.835938 80.847656 21.835938 82.132812 21.832031 C 82.269531 21.832031 82.320312 21.855469 82.363281 22.019531 C 82.480469 22.472656 82.742188 22.839844 83.164062 23.074219 C 83.519531 23.269531 83.890625 23.378906 84.292969 23.421875 C 84.804688 23.476562 85.3125 23.476562 85.816406 23.375 C 86.160156 23.308594 86.503906 23.203125 86.730469 22.914062 C 87.035156 22.53125 87.066406 21.828125 86.339844 21.613281 C 85.964844 21.5 85.566406 21.441406 85.175781 21.375 C 84.734375 21.300781 84.289062 21.25 83.84375 21.179688 C 83.277344 21.09375 82.707031 21.019531 82.148438 20.90625 C 81.191406 20.710938 80.257812 20.433594 79.480469 19.808594 C 78.871094 19.320312 78.488281 18.683594 78.398438 17.886719 C 78.320312 17.167969 78.335938 16.464844 78.589844 15.777344 C 78.757812 15.320312 78.988281 14.910156 79.304688 14.539062 C 80.0625 13.644531 81.050781 13.164062 82.160156 12.886719 C 82.695312 12.75 83.234375 12.660156 83.789062 12.652344 C 84.140625 12.648438 84.5 12.597656 84.851562 12.621094 C 85.394531 12.660156 85.933594 12.738281 86.472656 12.804688 C 87.097656 12.878906 87.695312 13.0625 88.273438 13.3125 C 88.832031 13.554688 89.355469 13.859375 89.8125 14.277344 C 90.226562 14.652344 90.5625 15.078125 90.800781 15.585938 C 90.976562 15.957031 91.089844 16.351562 91.128906 16.765625 C 91.140625 16.863281 91.160156 16.960938 91.179688 17.082031 C 91.109375 17.085938 91.054688 17.089844 91 17.089844 C 89.699219 17.089844 88.394531 17.089844 87.089844 17.09375 C 86.953125 17.09375 86.898438 17.074219 86.863281 16.902344 C 86.761719 16.445312 86.445312 16.152344 86.023438 15.972656 C 85.4375 15.722656 84.820312 15.710938 84.207031 15.75 C 83.8125 15.773438 83.417969 15.84375 83.082031 16.085938 C 82.75 16.328125 82.613281 16.628906 82.734375 17 C 82.804688 17.214844 82.980469 17.320312 83.175781 17.398438 C 83.628906 17.574219 84.105469 17.621094 84.582031 17.671875 C 85.132812 17.726562 85.6875 17.796875 86.257812 17.863281 Z M 86.257812 17.863281 "/>
<path style=" stroke:none;fill-rule:nonzero;fill:rgb(13.72549%,12.156863%,12.54902%);fill-opacity:1;" d="M 15.988281 8.101562 C 18.316406 8.101562 20.628906 8.101562 22.953125 8.101562 C 22.953125 9.464844 22.953125 10.816406 22.953125 12.183594 C 21.34375 12.183594 19.730469 12.183594 18.101562 12.183594 C 18.101562 16.910156 18.101562 21.617188 18.101562 26.339844 C 16.5 26.339844 14.910156 26.339844 13.3125 26.339844 C 13.3125 20.269531 13.3125 14.195312 13.3125 8.101562 C 14.195312 8.101562 15.082031 8.101562 15.988281 8.101562 Z M 15.988281 8.101562 "/>
<path style=" stroke:none;fill-rule:nonzero;fill:rgb(13.72549%,12.156863%,12.54902%);fill-opacity:1;" d="M 27.976562 13.632812 C 28.046875 14.007812 28.109375 14.367188 28.171875 14.726562 C 28.417969 14.4375 28.640625 14.144531 28.894531 13.890625 C 29.390625 13.390625 30 13.109375 30.683594 12.957031 C 31.324219 12.8125 31.964844 12.867188 32.617188 12.84375 C 32.617188 14.199219 32.617188 15.539062 32.617188 16.898438 C 32.011719 16.898438 31.414062 16.902344 30.816406 16.894531 C 30.320312 16.890625 29.851562 16.992188 29.410156 17.21875 C 28.949219 17.460938 28.644531 17.847656 28.453125 18.316406 C 28.300781 18.6875 28.21875 19.078125 28.214844 19.484375 C 28.203125 21.710938 28.191406 23.941406 28.179688 26.167969 C 28.179688 26.246094 28.179688 26.320312 28.179688 26.414062 C 26.675781 26.414062 25.179688 26.414062 23.667969 26.414062 C 23.667969 21.90625 23.667969 17.390625 23.667969 12.859375 C 25.042969 12.859375 26.425781 12.859375 27.832031 12.859375 C 27.875 13.105469 27.921875 13.363281 27.976562 13.632812 Z M 27.976562 13.632812 "/>
<path style=" stroke:none;fill-rule:nonzero;fill:rgb(92.941176%,34.901961%,21.568627%);fill-opacity:1;" d="M 135.820312 13.761719 C 135.292969 14.355469 134.777344 14.941406 134.261719 15.523438 C 134.003906 15.816406 133.742188 16.101562 133.480469 16.386719 C 133.398438 16.480469 133.316406 16.578125 133.234375 16.675781 C 133.109375 16.816406 132.980469 16.90625 132.765625 16.90625 C 131.253906 16.890625 129.738281 16.898438 128.222656 16.898438 C 128.15625 16.898438 128.089844 16.898438 127.980469 16.898438 C 128.058594 16.792969 128.105469 16.710938 128.167969 16.644531 C 128.644531 16.125 129.125 15.605469 129.597656 15.085938 C 129.984375 14.664062 130.367188 14.238281 130.75 13.8125 C 131.023438 13.511719 131.292969 13.207031 131.570312 12.910156 C 131.597656 12.878906 131.648438 12.847656 131.6875 12.847656 C 133.328125 12.847656 134.96875 12.847656 136.636719 12.847656 C 136.355469 13.160156 136.09375 13.457031 135.820312 13.761719 Z M 135.820312 13.761719 "/>
<path style=" stroke:none;fill-rule:nonzero;fill:rgb(92.941176%,34.901961%,21.568627%);fill-opacity:1;" d="M 7.78125 8.101562 C 9.257812 8.101562 10.710938 8.101562 12.179688 8.101562 C 12.179688 9.464844 12.179688 10.820312 12.179688 12.191406 C 11.902344 12.191406 11.628906 12.191406 11.355469 12.191406 C 10.953125 12.191406 10.546875 12.160156 10.152344 12.203125 C 9.84375 12.234375 9.691406 12.0625 9.523438 11.875 C 9.289062 11.609375 9.066406 11.335938 8.832031 11.070312 C 8.371094 10.539062 7.910156 10.007812 7.445312 9.480469 C 7.109375 9.097656 6.769531 8.722656 6.433594 8.34375 C 6.375 8.277344 6.328125 8.207031 6.25 8.101562 C 6.785156 8.101562 7.273438 8.101562 7.78125 8.101562 Z M 7.78125 8.101562 "/>
<path style=" stroke:none;fill-rule:nonzero;fill:rgb(13.72549%,12.156863%,12.54902%);fill-opacity:1;" d="M 131.617188 26.398438 C 131.628906 26.390625 131.636719 26.398438 131.648438 26.414062 C 131.640625 26.417969 131.628906 26.414062 131.617188 26.398438 Z M 131.617188 26.398438 "/>
<path style=" stroke:none;fill-rule:nonzero;fill:rgb(13.72549%,12.156863%,12.54902%);fill-opacity:1;" d="M 136.761719 26.421875 C 136.753906 26.410156 136.761719 26.402344 136.777344 26.390625 C 136.777344 26.398438 136.777344 26.410156 136.761719 26.421875 Z M 136.761719 26.421875 "/>
<path style=" stroke:none;fill-rule:nonzero;fill:rgb(13.72549%,12.156863%,12.54902%);fill-opacity:1;" d="M 77.4375 8.015625 C 77.425781 8.019531 77.417969 8.015625 77.40625 8 C 77.417969 7.996094 77.429688 8 77.4375 8.015625 Z M 77.4375 8.015625 "/>
<path style=" stroke:none;fill-rule:nonzero;fill:rgb(13.72549%,12.156863%,12.54902%);fill-opacity:1;" d="M 72.90625 7.992188 C 72.914062 8.003906 72.910156 8.011719 72.894531 8.019531 C 72.890625 8.011719 72.894531 8 72.90625 7.992188 Z M 72.90625 7.992188 "/>
<path style=" stroke:none;fill-rule:nonzero;fill:rgb(100%,100%,100%);fill-opacity:1;" d="M 99.703125 16.320312 C 100.101562 16.386719 100.464844 16.5 100.789062 16.722656 C 101.382812 17.121094 101.726562 17.703125 101.890625 18.378906 C 101.996094 18.8125 102.050781 19.265625 102.046875 19.707031 C 102.035156 20.519531 101.859375 21.300781 101.359375 21.960938 C 100.988281 22.445312 100.5 22.773438 99.878906 22.882812 C 99.203125 23 98.570312 22.914062 97.996094 22.527344 C 97.457031 22.164062 97.148438 21.636719 96.949219 21.019531 C 96.796875 20.539062 96.722656 20.050781 96.734375 19.554688 C 96.75 18.800781 96.875 18.058594 97.300781 17.410156 C 97.6875 16.828125 98.207031 16.449219 98.910156 16.359375 C 99.164062 16.328125 99.425781 16.332031 99.703125 16.320312 Z M 99.703125 16.320312 "/>
<path style=" stroke:none;fill-rule:nonzero;fill:rgb(100%,100%,100%);fill-opacity:1;" d="M 72.125 22.152344 C 71.65625 22.636719 71.109375 22.886719 70.441406 22.921875 C 69.628906 22.964844 68.949219 22.707031 68.414062 22.101562 C 68.023438 21.660156 67.792969 21.125 67.710938 20.542969 C 67.652344 20.117188 67.609375 19.679688 67.636719 19.25 C 67.691406 18.414062 67.921875 17.625 68.535156 17.011719 C 68.992188 16.558594 69.550781 16.335938 70.199219 16.316406 C 70.734375 16.300781 71.226562 16.417969 71.671875 16.707031 C 72.144531 17.011719 72.441406 17.460938 72.648438 17.976562 C 72.921875 18.660156 72.964844 19.378906 72.910156 20.097656 C 72.855469 20.847656 72.632812 21.554688 72.125 22.152344 Z M 72.125 22.152344 "/>
<path style=" stroke:none;fill-rule:nonzero;fill:rgb(100%,100%,100%);fill-opacity:1;" d="M 116.042969 16.242188 C 116.378906 16.433594 116.660156 16.667969 116.855469 16.996094 C 117.019531 17.273438 117.152344 17.5625 117.203125 17.894531 C 115.546875 17.894531 113.910156 17.894531 112.261719 17.894531 C 112.378906 17.183594 112.722656 16.621094 113.339844 16.261719 C 113.59375 16.117188 113.902344 16.039062 114.195312 15.976562 C 114.691406 15.878906 115.1875 15.933594 115.671875 16.089844 C 115.796875 16.128906 115.910156 16.1875 116.042969 16.242188 Z M 116.042969 16.242188 "/>
<path style=" stroke:none;fill-rule:nonzero;fill:rgb(100%,100%,100%);fill-opacity:1;" d="M 38.578125 16.519531 C 38.933594 16.226562 39.324219 16.0625 39.761719 15.988281 C 40.695312 15.824219 41.824219 16.042969 42.441406 16.960938 C 42.535156 17.097656 42.605469 17.253906 42.667969 17.40625 C 42.730469 17.558594 42.777344 17.71875 42.832031 17.890625 C 41.171875 17.890625 39.527344 17.890625 37.867188 17.890625 C 37.96875 17.359375 38.183594 16.898438 38.578125 16.519531 Z M 38.578125 16.519531 "/>
</g>
</svg>
